<?xml version="1.0"?>
<svg xmlns="http://www.w3.org/2000/svg" height="512px" version="1.1" viewBox="-31 0 512 512.00003" width="512px" class=""><g><g id="surface1">
<path d="M 153.539062 438.535156 L 57.324219 467.15625 L 91.109375 376.152344 L 328.296875 138.945312 L 378.261719 88.980469 C 381.191406 86.035156 384.632812 83.644531 388.414062 81.917969 L 388.414062 0 L 0 0 L 0 512 L 282.484375 512 L 282.484375 406.070312 L 388.414062 406.070312 L 388.414062 203.652344 L 153.539062 438.527344 Z M 153.539062 438.535156 " style="fill:#EFE811" data-original="#E6E7E8" class="" data-old_color="#EFE809"/>
<path d="M 353.28125 113.964844 L 328.296875 138.945312 L 359.503906 170.152344 L 359.53125 170.125 L 359.503906 170.152344 L 390.707031 201.355469 L 415.691406 176.375 Z M 353.28125 113.964844 " style="fill:#160F0E" data-original="#FF7956" class="" data-old_color="#FF7956"/>
<path d="M 91.101562 376.144531 L 91.109375 376.152344 L 91.117188 376.125 Z M 91.101562 376.144531 " style="fill:#FFE26E" data-original="#FFE26E" class="" data-old_color=" stroke:nonefill-rule:nonzero;rgb(100%,88.627451%,43.137255%);fill-opacity:1;"/>
<path d="M 153.511719 438.554688 L 153.527344 438.535156 L 153.503906 438.546875 Z M 153.511719 438.554688 " style="fill:#FFE26E" data-original="#FFE26E" class="" data-old_color=" stroke:nonefill-rule:nonzero;rgb(100%,88.627451%,43.137255%);fill-opacity:1;"/>
<path d="M 91.117188 376.125 L 91.125 376.117188 L 91.117188 376.117188 Z M 91.117188 376.125 " style="fill:#FFE26E" data-original="#FFE26E" class="" data-old_color=" stroke:nonefill-rule:nonzero;rgb(100%,88.627451%,43.137255%);fill-opacity:1;"/>
<path d="M 153.539062 438.535156 L 153.539062 438.527344 L 153.527344 438.535156 Z M 153.539062 438.535156 " style="fill:#FFE26E" data-original="#FFE26E" class="" data-old_color=" stroke:nonefill-rule:nonzero;rgb(100%,88.627451%,43.137255%);fill-opacity:1;"/>
<path d="M 57.324219 467.15625 L 153.503906 438.546875 L 91.109375 376.152344 Z M 57.324219 467.15625 " style="fill:#181C22" data-original="#A7A9AC" class="" data-old_color="#A7A9AC"/>
<path d="M 282.484375 512 L 388.414062 406.070312 L 282.484375 406.070312 Z M 282.484375 512 " style="fill:#FF1900" data-original="#D1D3D4" class="" data-old_color="#FF7C00"/>
<path d="M 428.226562 88.980469 C 417.734375 78.535156 401.855469 75.71875 388.414062 81.917969 C 384.632812 83.644531 381.191406 86.035156 378.261719 88.980469 L 353.277344 113.964844 L 388.414062 149.097656 L 415.691406 176.375 L 440.671875 151.394531 C 454.441406 137.585938 454.441406 115.238281 440.671875 101.429688 Z M 428.226562 88.980469 " style="fill:#FF1900" data-original="#D1D3D4" class="" data-old_color="#FF7C00"/>
<path d="M 91.125 376.109375 L 328.292969 138.941406 L 359.496094 170.144531 L 122.328125 407.316406 Z M 91.125 376.109375 " style="fill:#E5831B" data-original="#FFBB60" class="" data-old_color="#DB7F1C"/>
<path d="M 388.414062 199.0625 L 359.503906 170.152344 L 122.332031 407.324219 L 153.539062 438.527344 L 388.414062 203.652344 L 390.707031 201.355469 Z M 388.414062 199.0625 " style="fill:#FF9300" data-original="#FFAF46" class="active-path" data-old_color="#FF9B00"/>
</g></g> </svg>
