<?xml version="1.0"?>
<svg xmlns="http://www.w3.org/2000/svg" xmlns:xlink="http://www.w3.org/1999/xlink" version="1.1" id="Capa_1" x="0px" y="0px" viewBox="0 0 512.001 512.001" style="enable-background:new 0 0 512.001 512.001;" xml:space="preserve" width="512px" height="512px" class=""><g><path style="fill:#31759A" d="M419.799,61.902C413.201,27.401,382.599,0.001,346,0.001h-30c-41.4,0-75,34.6-75,76s33.6,75,75,75  h17.703c5.999,17.401,22.797,30,42.297,30h60c24.902,0,46,20.099,46,45c0,2.701,0.601,5.099,1.802,7.2l28.198-7.2v-60  C512,112.6,471.099,68.501,419.799,61.902z" data-original="#A4D9F5" class="active-path" data-old_color="#266688"/><path style="fill:#FD3C65" d="M497.001,211.001h-46l-30,36v66l30,17.999h46c8.401,0,15-6.599,15-15v-90  C512,217.6,505.402,211.001,497.001,211.001z" data-original="#FD3C65" class=""/><path style="fill:#FD003A" d="M512,271.001v45c0,8.401-6.599,15-15,15h-46l-30-17.999v-42.001H512z" data-original="#FD003A" class=""/><path style="fill:#94C1DB" d="M181.001,211.001l-30,21.899v68.101l30,30h270v-120H181.001z" data-original="#CAE8F9" class="" data-old_color="#CAE8F9"/><polygon style="fill:#5793B3" points="451.001,271.001 451.001,331.001 181.001,331.001 151.001,301.001 151.001,271.001 " data-original="#B7E0F6" class="" data-old_color="#528EAE"/><path style="fill:#FEA832" d="M45,211.001c-24.902,0-45,20.099-45,45v30c0,24.901,20.098,45,45,45h136v-120H45z" data-original="#FEA832"/><path style="fill:#FE9923" d="M0.001,271.001h181v60h-136c-24.902,0-45-20.099-45-45C0.001,286.001,0.001,271.001,0.001,271.001z" data-original="#FE9923" class=""/><path style="fill:#FD3C65" d="M507.5,507.5c-5.702,6-15.297,6-20.999,0L250.001,271.001L4.502,25.5  c-6.002-5.7-6.002-15.298,0-20.999c5.702-6,15.297-6,20.999,0L292,271l215.5,215.502C513.502,492.202,513.502,501.799,507.5,507.5z" data-original="#FD3C65" class=""/><path style="fill:#FD003A" d="M507.5,486.502c6.002,5.7,6.002,15.298,0,20.999c-5.702,6-15.297,6-20.999,0l-236.499-236.5h41.997  L507.5,486.502z" data-original="#FD003A" class=""/></g> </svg>
